<?xml version="1.0"?>
<svg xmlns:rdf="http://www.w3.org/1999/02/22-rdf-syntax-ns#" xmlns="http://www.w3.org/2000/svg" xmlns:cc="http://creativecommons.org/ns#" xmlns:dc="http://purl.org/dc/elements/1.1/" xmlns:svg="http://www.w3.org/2000/svg" id="svg2860" viewBox="0 0 154.84 119.88" version="1.1">
  <g id="layer1" transform="translate(-333.43 -377.24)">
    <path id="path2998" d="m333.95 380.84 1.696-1.947 1.64-1.239 2.092-0.413 0.792 0.294s0.453 1.417 0.51 1.593c0.056 0.178 0.339-0.412 0.339-0.648s0.339-0.59 0.564-0.825c0.228-0.234 0.566 0 0.793 0 0.226 0 0.565 0.943 0.678 1.18 0.114 0.237-0.396 1.18-0.396 1.18l-1.075 0.235 0.453 1.358 0.679 1.474s0.283-0.176 0.339-0.354 0.452-0.117 0.564-0.295c0.113-0.177 0.565-0.296 0.793-0.413 0.227-0.116 0.564 0 0.734 0.117 0.17 0.119 0.057 1.005 0.057 1.182s-1.131 0-1.131 0l-0.679 0.708s0.679 1.771 0.679 1.946c0 0.177 0.849 0.943 1.019 0.886 0.169-0.059 0.282-0.354 0.282-0.354s0.622-0.296 0.848-0.355c0.227-0.058 0.962 0.06 1.13 0.179 0.17 0.118-0.112 0.884-0.112 0.884l-0.905 0.118-0.792 0.471 0.736 1.711 0.34 4.426 2.091 3.066 3.676 4.898s0.849 0.059 1.357-0.176c0.509-0.235 1.697-0.178 1.979-0.121 0.282 0.06 2.092 0.651 2.375 0.946 0.281 0.293 2.262 1.592 2.543 1.475 0.283-0.117 1.64 0.354 1.925 0.589 0.283 0.237 4.24 1.593 4.861 2.006 0.622 0.413 3.959 0.709 4.523 0.886 0.566 0.177 4.467 0.886 5.089 1.299 0.624 0.413 4.978 2.359 4.978 2.359l3.053 1.298 3.732 0.413s0.961 0.118 1.527 0.177c0.565 0.06 1.017 0.118 1.526 0.294 0.509 0.178 1.245 0.237 1.81 0.355 0.565 0.117 1.695 0.294 2.375 0.294 0.678 0 1.244 0 1.754-0.059 0.508-0.057 1.244-0.118 1.695-0.295 0.452-0.177 1.188-0.235 1.754-0.709 0.565-0.471 0.792-0.235 1.018-0.353 0.227-0.118 0.564 0.295 0.791 0.472 0.227 0.178 0.623 0.531 0.848 0.885 0.228 0.354 1.414 0.235 1.755 0.354 0.339 0.119 1.242 0.177 1.526 0.177 0.283 0 1.357 0.118 1.752 0.118 0.396 0 1.471-0.649 1.471-0.649l1.414-0.827s0.17-1.474 0.283-1.65-0.113-1.004-0.113-1.239c0-0.234-0.113-0.235-0.453 0-0.34 0.237-0.396-0.235-0.961-0.768-0.564-0.53-0.509-0.943-0.621-1.592-0.113-0.649-0.227-0.885-0.283-1.533-0.058-0.649 0.79-0.945 0.79-0.945s0.284-0.53 0.284-0.708c0-0.177-0.057-1.83-0.113-2.065-0.057-0.234 0.17-1.18 0.113-1.474-0.056-0.296 0.282-0.886 0.395-1.711 0.115-0.825 0.736-0.945 1.133-1.77 0.396-0.826 1.299-1.83 1.582-2.184s2.545-1.239 2.941-1.357c0.396-0.116 2.487-0.177 2.883-0.118 0.396 0.06 2.434 1.062 2.715 1.238 0.282 0.178 1.697 1.416 1.924 1.712 0.227 0.297 1.129 2.36 1.188 2.832 0.057 0.474 0.338 2.241 0.395 2.537 0.057 0.294 0.338 3.008 0.51 2.95 0.17-0.059 0.734 0.117 0.848 0.412 0.113 0.296 0.283 1.77 0.227 2.715-0.057 0.942-1.725 1.887-1.725 1.887l-0.17 1.416s0.086 0.531 0.34 0.531 0.254 0.619 0.34 0.884c0.084 0.267 0.508 0.532 0.764 0.532 0.252 0 0.594 0 1.102-0.177 0.51-0.178 0.934-0.267 1.443-0.532 0.508-0.265 0.934-0.177 1.441-0.265s1.018 0.265 1.441 0.619 1.441-0.265 2.121-0.442c0.678-0.177 1.779-0.619 2.375-0.708 0.594-0.089 1.865-0.266 1.865-0.266h3.225l3.307-0.619 1.697-0.53s4.156-1.417 4.496-1.505c0.338-0.089 2.629-1.238 2.883-1.416 0.256-0.177 1.951-1.682 2.205-1.947 0.256-0.266 5.176-2.566 5.43-2.566s8.652-4.248 8.652-4.248l3.137-2.301s1.953-1.239 2.205-1.594c0.256-0.353 0.766-1.149 0.936-1.681 0.168-0.531 1.781-2.921 1.781-2.921l1.355-1.062 2.713-1.15s1.104-0.885 1.443-1.062c0.34-0.178 1.104-0.797 1.104-0.797l1.609 0.797s1.105 1.151 1.275 1.415-0.285 0.886-0.398 1.3c-0.111 0.413-0.338 0.825-0.451 1.062-0.113 0.235-0.566 1.77-0.566 1.77s-0.281 1.531-0.451 1.771c-0.17 0.235-0.453 1.946-0.453 2.124 0 0.177-1.244 0.824-1.244 0.824l-2.373 1.238-3 1.416s-3.504 2.716-3.504 2.893-3.562 2.771-3.961 3.187c-0.393 0.411-4.523 3.895-6.105 5.014-1.584 1.121-9.16 4.66-9.33 4.836-0.172 0.178-1.697 0.709-2.715 1.416-1.018 0.71-8.086 4.779-8.086 4.779s-0.453 1.947-0.566 2.421c-0.113 0.472-0.678 2.063-0.848 2.536-0.17 0.472-0.963 0.472-1.301 0.53-0.338 0.06-1.244 0.236-1.639 0.412-0.396 0.178-1.527 1.24-2.205 1.712-0.68 0.473-2.32 3.481-4.072 5.369-1.752 1.887-2.488 8.259-2.658 9.086-0.17 0.828-1.018 5.605-1.018 6.313 0 0.707-0.17 3.01-0.453 4.071-0.281 1.062-0.906 2.063-1.018 2.771-0.113 0.707 0.34 2.773 0.34 3.069 0 0.294 0.057 2.478 0.281 2.889 0.227 0.413 1.471 2.891 1.98 3.659 0.51 0.767 0.113 2.595 0.113 2.595s0.68 1.123 0.85 1.477c0.168 0.354 0.51 1.651 0.734 2.063 0.223 0.413 1.018 1.946 1.188 2.538 0.168 0.589 0.734 2.537 0.793 2.891 0.055 0.354 0.959 1.594 1.129 2.065s0.736 4.13 0.736 4.13l0.619 3.836 0.908 4.894-0.398 2.833s-2.316 0.061-2.432 0.061c-0.113 0-30.875 0.589-30.875 0.589s-0.453-3.306-0.51-3.482c-0.055-0.176-2.373-7.55-2.6-8.021s-1.356-3.245-1.641-3.775c-0.283-0.531-1.696-3.895-2.205-4.897-0.509-1.004-0.564-2.125-0.623-3.364-0.057-1.238-0.848-7.786-0.848-7.786l-0.227-4.545c-14.419 6.373-18.83-7.374-18.83-7.374-0.114-0.59-0.171-2.537-0.679-4.307-0.509-1.771-3.11-3.717-3.11-3.717-6.616-4.13-6.73-6.785-7.014-7.375-0.282-0.591-0.509-2.006-0.509-2.478s0.115-1.83 0.115-1.83l0.677-0.234s0.395 0.472 0.454 0.766c0.056 0.297 0.791 0.827 0.791 0.827l0.792-0.177 0.565-0.65s0.622 0 0.848 0.061c0.227 0.059 1.357-0.237 1.357-0.237l-0.225-0.943-7.691-10.208-10.236-12.623-0.396 0.353-0.564 0.531s-1.639 0.059-1.867 0.178c-0.227 0.119-1.244-0.59-1.47-0.709-0.226-0.116-0.509-0.767-0.623-1.18-0.112-0.412 0.057-0.354 0.283-0.708 0.228-0.354 0.284-0.412 0.284-0.412s-0.17-0.768-0.284-0.826c-0.111-0.06-0.792-0.118-1.244-0.71-0.452-0.589-0.338-1.532-0.338-1.532l-0.679-0.648s-0.34-0.768-0.34-1.239 0.848-1.298 0.848-1.298l-2.206-2.893-2.771-3.244-1.299-2.359-1.358-0.413-0.735-1.356-0.792-1.771-1.64-2.831-1.923-3.186-1.923-3.127 0.513-0.536zm56.775 52.27c0.792 2.773 0.622 3.246 1.923 4.544 1.301 1.296 3.11 2.596 4.693 3.066l1.582 0.473s-0.563-5.131-0.848-5.604c-0.281-0.471-1.129-2.006-1.244-2.359-0.113-0.354-1.186-2.243-1.243-2.478-0.058-0.235-0.849-1.713-1.018-1.948-0.171-0.234-1.132-1.593-1.132-1.593l-5.485 2.006s1.981 1.121 2.772 3.893zm-29.743-21.179 3.842 4.542 7.58 9.323 4.071 4.836s0.624 0 1.132-0.057c0.509-0.059 1.357-0.296 2.206-0.945 0.849-0.648 0.959-0.826 0.79-1.593s-2.205-2.596-2.205-2.596v-0.826c3.732-0.944 6.447 2.242 6.447 2.242l5.995-2.714s-2.434-1.416-2.603-1.652c-0.169-0.235-5.429-2.479-5.429-2.479s-2.713-0.589-3.732-0.766c-1.018-0.177-5.315-1.829-6.616-2.36-1.3-0.531-5.031-2.36-5.2-2.479-0.17-0.117-5.373-3.244-5.657-3.479-0.282-0.236-2.036-0.769-2.036-0.769l1.415 1.772z" fill="#f95"/>
  </g>
  <metadata>
    <rdf:RDF>
      <cc:Work>
        <dc:format>image/svg+xml</dc:format>
        <dc:type rdf:resource="http://purl.org/dc/dcmitype/StillImage"/>
        <cc:license rdf:resource="http://creativecommons.org/licenses/publicdomain/"/>
        <dc:publisher>
          <cc:Agent rdf:about="http://openclipart.org/">
            <dc:title>Openclipart</dc:title>
          </cc:Agent>
        </dc:publisher>
        <dc:title>concert</dc:title>
        <dc:date>2010-08-04T10:31:07</dc:date>
        <dc:description>Separated entry of my collection-set of silhouettes. Check my other clip art.</dc:description>
        <dc:source>http://openclipart.org/detail/77155/concert-by-shokunin</dc:source>
        <dc:creator>
          <cc:Agent>
            <dc:title>shokunin</dc:title>
          </cc:Agent>
        </dc:creator>
        <dc:subject>
          <rdf:Bag>
            <rdf:li>book</rdf:li>
            <rdf:li>books</rdf:li>
            <rdf:li>boy</rdf:li>
            <rdf:li>clip art</rdf:li>
            <rdf:li>clipart</rdf:li>
            <rdf:li>concert</rdf:li>
            <rdf:li>cool laptop</rdf:li>
            <rdf:li>dude</rdf:li>
            <rdf:li>girl</rdf:li>
            <rdf:li>hip hop</rdf:li>
            <rdf:li>man</rdf:li>
            <rdf:li>mic</rdf:li>
            <rdf:li>mike</rdf:li>
            <rdf:li>party girl</rdf:li>
            <rdf:li>party goer</rdf:li>
            <rdf:li>rap</rdf:li>
            <rdf:li>rapper</rdf:li>
            <rdf:li>rock crowd</rdf:li>
            <rdf:li>rock star</rdf:li>
            <rdf:li>shopper</rdf:li>
            <rdf:li>shopping</rdf:li>
            <rdf:li>silhouettes</rdf:li>
            <rdf:li>stand</rdf:li>
            <rdf:li>student</rdf:li>
            <rdf:li>student girl</rdf:li>
            <rdf:li>suit</rdf:li>
            <rdf:li>yo</rdf:li>
          </rdf:Bag>
        </dc:subject>
      </cc:Work>
      <cc:License rdf:about="http://creativecommons.org/licenses/publicdomain/">
        <cc:permits rdf:resource="http://creativecommons.org/ns#Reproduction"/>
        <cc:permits rdf:resource="http://creativecommons.org/ns#Distribution"/>
        <cc:permits rdf:resource="http://creativecommons.org/ns#DerivativeWorks"/>
      </cc:License>
    </rdf:RDF>
  </metadata>
</svg>
